<mxfile host="app.diagrams.net" modified="2021-04-29T08:11:44.209Z" agent="5.0 (Macintosh; Intel Mac OS X 10_14_2) AppleWebKit/537.36 (KHTML, like Gecko) Chrome/90.0.4430.93 Safari/537.36" etag="0er4MyLo3bfSfqo7V-1_" version="14.6.6" type="github">
  <diagram id="wab9k3lWIxKtRYeXMlUE" name="Page-1">
    <mxGraphModel dx="1186" dy="687" grid="1" gridSize="10" guides="1" tooltips="1" connect="1" arrows="1" fold="1" page="1" pageScale="1" pageWidth="827" pageHeight="1169" math="0" shadow="0">
      <root>
        <mxCell id="0" />
        <mxCell id="1" parent="0" />
      </root>
    </mxGraphModel>
  </diagram>
</mxfile>
